<svg xmlns="http://www.w3.org/2000/svg" xml:space="preserve" width="128" height="128" data-id="lg_FyAnMb3tc6tD8evP3N" data-version="1" viewBox="0 0 128 128"><g data-padding="20"><g transform="translate(54.086 54.086)scale(.17706)"><rect width="201.727" height="201.727" x="-224.606" y="-224.606" fill="#111" rx="13" ry="13" transform="translate(400 400)scale(2.78)"/><rect width="87.938" height="75.71" x="-43.969" y="-155.365" fill="none" rx="0" ry="0" transform="rotate(-45 726.963 -261.317)scale(4.14)"/><path fill="#aaa" d="M21.496 251.348q-4.128 4.127-9.397 4.127-5.3.03-9.426-4.098l-134.37-134.37q-4.097-4.097-4.097-9.425 0-5.27 4.127-9.397L-95.981 62.5q14.52-14.52 31.938-19.82 17.476-5.298 34.66-.877 17.155 4.39 31.295 18.53 13.32 13.32 17.33 30.094t-1.493 34.046q-5.474 17.243-19.994 31.763L-28.71 182.7l50.03 50.03q4.127 4.127 4.186 9.338.087 5.18-4.01 9.28m81.587-81.588q-2.751 2.752-5.767 3.66-3.044.878-6.996.088l-94.117-21.985 13.32-23.508 86.505 20.17q8.636 1.962 10.773 8.84 2.166 6.85-3.718 12.735m-208.08-63.35 58.84 58.842 26.464-26.464q9.427-9.426 12.94-20.2 3.542-10.801 1.17-21.37-2.342-10.596-10.568-18.822-8.84-8.841-19.935-11.68-11.066-2.87-22.044.497-10.978 3.308-20.404 12.734Zm277.929-2.514q-13.525 13.525-30.094 18.15t-33.14 0q-16.597-4.596-30.122-18.12-4.127-4.128-4.098-9.427-.03-5.298 4.098-9.426t9.339-4.01q5.18.087 9.309 4.215 8.636 8.636 18.999 11.563 10.422 2.928 20.52.498t18.15-10.48q8.227-8.226 10.774-18.443t-.498-20.521q-3.015-10.276-11.65-18.912L55.455-70.081q-4.098-4.098-4.215-9.31-.088-5.18 4.04-9.308 4.098-4.098 9.397-4.128 5.298.03 9.397 4.128l99.064 99.064Q186.662 23.89 191.2 40.547q4.508 16.686 0 33.138-4.538 16.482-18.267 30.21"/><rect width="87.938" height="75.71" x="-43.969" y="-155.365" fill="none" rx="0" ry="0" transform="rotate(-45 719.197 -281.841)scale(4.14)"/><path fill="#fff" d="M33.376 239.47q-4.127 4.127-9.397 4.127-5.328 0-9.426-4.098l-134.37-134.37q-4.126-4.126-4.097-9.425 0-5.27 4.128-9.397l35.685-35.685q14.52-14.52 31.967-19.848 17.448-5.27 34.602-.88 17.184 4.42 31.295 18.532 13.349 13.35 17.36 30.123t-1.465 34.017q-5.503 17.272-20.023 31.792l-26.464 26.464 50.03 50.03q4.098 4.098 4.215 9.308.088 5.182-4.04 9.31m81.588-81.588q-2.752 2.752-5.797 3.63-3.015.908-6.938.088L8.083 139.645l13.35-23.537 86.475 20.2q8.636 1.96 10.773 8.84 2.167 6.85-3.717 12.734m-208.082-63.35 58.842 58.842 26.463-26.464q9.427-9.426 12.94-20.2 3.542-10.801 1.2-21.4Q3.956 74.745-4.3 66.489q-8.811-8.811-19.877-11.68-11.095-2.84-22.073.527-10.977 3.308-20.404 12.734Zm277.926-2.516q-13.524 13.525-30.093 18.15t-33.138 0-30.094-18.15q-4.128-4.127-4.128-9.397 0-5.328 4.098-9.426 4.128-4.128 9.339-4.01 5.18.087 9.309 4.215 8.607 8.607 18.999 11.563 10.422 2.928 20.52.498 10.1-2.488 18.122-10.51 8.255-8.255 10.802-18.413 2.547-10.217-.497-20.521t-11.652-18.911L67.33-81.96q-4.127-4.128-4.215-9.31-.088-5.181 4.04-9.31 4.127-4.126 9.397-4.126 5.298-.03 9.426 4.098l99.064 99.064q13.525 13.525 18.033 30.21t0 33.139q-4.538 16.482-18.267 30.21"/></g><path fill="transparent" stroke="transparent" stroke-width=".184" d="M12.5 12.5h103v103h-103z"/></g></svg>